HIERARCHY
ROOT Hips
{
	OFFSET -14.64140 90.27770 -84.91600
	CHANNELS 6 Xposition Yposition Zposition Zrotation Xrotation Yrotation
	JOINT Spine
	{
		OFFSET 0.00000 13.20850 -1.60436
		CHANNELS 3 Zrotation Xrotation Yrotation
		JOINT Spine1
		{
			OFFSET 0.00000 8.61716 0.00000
			CHANNELS 3 Zrotation Xrotation Yrotation
			JOINT Spine2
			{
				OFFSET 0.00000 8.61717 0.00000
				CHANNELS 3 Zrotation Xrotation Yrotation
				JOINT Spine3
				{
					OFFSET 0.00000 8.61717 0.00000
					CHANNELS 3 Zrotation Xrotation Yrotation
					JOINT Neck
					{
						OFFSET 0.00000 11.07920 1.10792
						CHANNELS 3 Zrotation Xrotation Yrotation
						JOINT Neck1
						{
							OFFSET 0.00000 7.08032 0.00000
							CHANNELS 3 Zrotation Xrotation Yrotation
							JOINT Head
							{
								OFFSET 0.00000 7.08031 0.00000
								CHANNELS 3 Zrotation Xrotation Yrotation
								End site
								{
									OFFSET 0.00000 0.00000 0.00000
								}
							}
						}
					}
					JOINT RightShoulder
					{
						OFFSET -0.01000 7.91373 5.19711
						CHANNELS 3 Zrotation Xrotation Yrotation
						JOINT RightArm
						{
							OFFSET -18.41580 0.00000 0.00000
							CHANNELS 3 Zrotation Xrotation Yrotation
							JOINT RightForeArm
							{
								OFFSET -29.11090 0.00000 0.00000
								CHANNELS 3 Zrotation Xrotation Yrotation
								JOINT RightHand
								{
									OFFSET -24.65040 0.00000 0.00000
									CHANNELS 3 Zrotation Xrotation Yrotation
									JOINT RightHandThumb1
									{
										OFFSET -5.35114 -0.85590 3.97906
										CHANNELS 3 Zrotation Xrotation Yrotation
										JOINT RightHandThumb2
										{
											OFFSET -4.52789 0.00000 0.00000
											CHANNELS 3 Zrotation Xrotation Yrotation
											JOINT RightHandThumb3
											{
												OFFSET -2.46976 0.00000 0.00000
												CHANNELS 3 Zrotation Xrotation Yrotation
												End site
												{
													OFFSET 0.00000 0.00000 0.00000
												}
											}
										}
									}
									JOINT RightHandIndex1
									{
										OFFSET -14.26970 0.00000 2.88139
										CHANNELS 3 Zrotation Xrotation Yrotation
										JOINT RightHandIndex2
										{
											OFFSET -5.48836 0.00000 0.00000
											CHANNELS 3 Zrotation Xrotation Yrotation
											JOINT RightHandIndex3
											{
												OFFSET -3.01859 0.00000 0.00000
												CHANNELS 3 Zrotation Xrotation Yrotation
												End site
												{
													OFFSET 0.00000 0.00000 0.00000
												}
											}
										}
									}
									JOINT RightHandMiddle1
									{
										OFFSET -14.26970 0.00000 -0.09147
										CHANNELS 3 Zrotation Xrotation Yrotation
										JOINT RightHandMiddle2
										{
											OFFSET -6.17441 0.00000 0.00000
											CHANNELS 3 Zrotation Xrotation Yrotation
											JOINT RightHandMiddle3
											{
												OFFSET -3.56743 0.00000 0.00000
												CHANNELS 3 Zrotation Xrotation Yrotation
												End site
												{
													OFFSET 0.00000 0.00000 0.00000
												}
											}
										}
									}
									JOINT RightHandRing1
									{
										OFFSET -12.69180 0.00000 -3.06433
										CHANNELS 3 Zrotation Xrotation Yrotation
										JOINT RightHandRing2
										{
											OFFSET -5.62556 0.00000 0.00000
											CHANNELS 3 Zrotation Xrotation Yrotation
											JOINT RightHandRing3
											{
												OFFSET -3.56744 0.00000 0.00000
												CHANNELS 3 Zrotation Xrotation Yrotation
												End site
												{
													OFFSET 0.00000 0.00000 0.00000
												}
											}
										}
									}
									JOINT RightHandPinky1
									{
										OFFSET -11.11390 0.00000 -6.03719
										CHANNELS 3 Zrotation Xrotation Yrotation
										JOINT RightHandPinky2
										{
											OFFSET -4.52789 0.00000 0.00000
											CHANNELS 3 Zrotation Xrotation Yrotation
											JOINT RightHandPinky3
											{
												OFFSET -2.46976 0.00000 0.00000
												CHANNELS 3 Zrotation Xrotation Yrotation
												End site
												{
													OFFSET 0.00000 0.00000 0.00000
												}
											}
										}
									}
								}
							}
						}
					}
					JOINT LeftShoulder
					{
						OFFSET 0.01000 7.91373 5.19711
						CHANNELS 3 Zrotation Xrotation Yrotation
						JOINT LeftArm
						{
							OFFSET 18.41580 0.00000 0.00000
							CHANNELS 3 Zrotation Xrotation Yrotation
							JOINT LeftForeArm
							{
								OFFSET 29.11090 0.00000 0.00000
								CHANNELS 3 Zrotation Xrotation Yrotation
								JOINT LeftHand
								{
									OFFSET 24.65040 0.00000 0.00000
									CHANNELS 3 Zrotation Xrotation Yrotation
									JOINT LeftHandThumb1
									{
										OFFSET 5.35114 -0.85590 3.97906
										CHANNELS 3 Zrotation Xrotation Yrotation
										JOINT LeftHandThumb2
										{
											OFFSET 4.52789 0.00000 0.00000
											CHANNELS 3 Zrotation Xrotation Yrotation
											JOINT LeftHandThumb3
											{
												OFFSET 2.46977 0.00000 0.00000
												CHANNELS 3 Zrotation Xrotation Yrotation
												End site
												{
													OFFSET 0.00000 0.00000 0.00000
												}
											}
										}
									}
									JOINT LeftHandIndex1
									{
										OFFSET 14.26970 0.00000 2.88139
										CHANNELS 3 Zrotation Xrotation Yrotation
										JOINT LeftHandIndex2
										{
											OFFSET 5.48836 0.00000 0.00000
											CHANNELS 3 Zrotation Xrotation Yrotation
											JOINT LeftHandIndex3
											{
												OFFSET 3.01859 0.00000 0.00000
												CHANNELS 3 Zrotation Xrotation Yrotation
												End site
												{
													OFFSET 0.00000 0.00000 0.00000
												}
											}
										}
									}
									JOINT LeftHandMiddle1
									{
										OFFSET 14.26970 0.00000 -0.09147
										CHANNELS 3 Zrotation Xrotation Yrotation
										JOINT LeftHandMiddle2
										{
											OFFSET 6.17440 0.00000 0.00000
											CHANNELS 3 Zrotation Xrotation Yrotation
											JOINT LeftHandMiddle3
											{
												OFFSET 3.56744 0.00000 0.00000
												CHANNELS 3 Zrotation Xrotation Yrotation
												End site
												{
													OFFSET 0.00000 0.00000 0.00000
												}
											}
										}
									}
									JOINT LeftHandRing1
									{
										OFFSET 12.69180 0.00000 -3.06433
										CHANNELS 3 Zrotation Xrotation Yrotation
										JOINT LeftHandRing2
										{
											OFFSET 5.62556 0.00000 0.00000
											CHANNELS 3 Zrotation Xrotation Yrotation
											JOINT LeftHandRing3
											{
												OFFSET 3.56744 0.00000 0.00000
												CHANNELS 3 Zrotation Xrotation Yrotation
												End site
												{
													OFFSET 0.00000 0.00000 0.00000
												}
											}
										}
									}
									JOINT LeftHandPinky1
									{
										OFFSET 11.11390 0.00000 -6.03719
										CHANNELS 3 Zrotation Xrotation Yrotation
										JOINT LeftHandPinky2
										{
											OFFSET 4.52789 0.00000 0.00000
											CHANNELS 3 Zrotation Xrotation Yrotation
											JOINT LeftHandPinky3
											{
												OFFSET 2.46976 0.00000 0.00000
												CHANNELS 3 Zrotation Xrotation Yrotation
												End site
												{
													OFFSET 0.00000 0.00000 0.00000
												}
											}
										}
									}
								}
							}
						}
					}
					JOINT pCube4
					{
						OFFSET 0.00000 10.91090 1.10792
						CHANNELS 3 Zrotation Xrotation Yrotation
						End site
						{
							OFFSET 0.00000 0.00000 0.00000
						}
					}
				}
			}
		}
	}
	JOINT RightUpLeg
	{
		OFFSET -9.98441 0.00000 0.00000
		CHANNELS 3 Zrotation Xrotation Yrotation
		JOINT RightLeg
		{
			OFFSET 0.00000 -42.11790 0.00000
			CHANNELS 3 Zrotation Xrotation Yrotation
			JOINT RightFoot
			{
				OFFSET 0.00000 -45.00020 -0.00001
				CHANNELS 3 Zrotation Xrotation Yrotation
				JOINT RightForeFoot
				{
					OFFSET 0.00000 -3.74820 0.00000
					CHANNELS 3 Zrotation Xrotation Yrotation
					JOINT RightToeBase
					{
						OFFSET 0.00000 0.06325 14.43120
						CHANNELS 3 Zrotation Xrotation Yrotation
						End site
						{
							OFFSET 0.00000 0.00000 0.00000
						}
					}
				}
			}
		}
	}
	JOINT LeftUpLeg
	{
		OFFSET 9.98441 0.00000 0.00000
		CHANNELS 3 Zrotation Xrotation Yrotation
		JOINT LeftLeg
		{
			OFFSET 0.00000 -42.11800 0.00000
			CHANNELS 3 Zrotation Xrotation Yrotation
			JOINT LeftFoot
			{
				OFFSET 0.00000 -45.00070 0.00000
				CHANNELS 3 Zrotation Xrotation Yrotation
				JOINT LeftForeFoot
				{
					OFFSET 0.00000 -3.74824 0.00000
					CHANNELS 3 Zrotation Xrotation Yrotation
					JOINT LeftToeBase
					{
						OFFSET 0.00000 0.06325 14.43110
						CHANNELS 3 Zrotation Xrotation Yrotation
						End site
						{
							OFFSET 0.00000 0.00000 0.00000
						}
					}
				}
			}
		}
	}
}
MOTION
Frames: 4
Frame Time: 0.050000
-0.012544673670969267 -0.012755141591833642 0.031544590903866083 -0.014383480002362052 -0.0491838110821608 -0.02820813540151525 -4.1753643117387504 5.844605048400084 -0.5720673765419789 -0.6345667549177609 3.2188990397510637 0.33451189372783785 -0.6681954213218502 -0.5269622392178186 -1.6775663928812647 -1.2194498119344601 0.16552123783316397 -0.9454410652726404 -1.776370411683067 9.698722638011953 4.017055676098984 -0.34852819868318796 -1.1502589542953507 7.0244905829976405 -1.4308235328783465 -15.614592905713035 0.6792189531385867 4.133951635187443 -0.256613888961857 -10.157015751947547 65.61235047262937 7.368100539993615 22.410097063168838 46.673019398575356 18.040057749699574 103.08053394760198 26.537589242166426 0.0039007007973359334 -11.081469025683743 4.536364868844012 -0.15435428650557784 -1.6315627174381624 -0.04935359626728368 -0.036697028256757316 -56.22416670273106 -0.022544935255696452 0.024312223165242935 -56.206489171427556 -38.769642944968254 0.03314906544526093 0.028273483536844578 -0.03960151912817014 -0.0130490212068614 0.01673587316536558 -0.02103119622860519 0.047649365481452745 -0.04861309019446575 -36.65940098154176 -0.03581376108244105 0.012067376010054457 -0.04953892443969216 0.049735077597882024 -0.04148048839966548 -0.03841523462554842 -0.0024818327966674683 0.027751047821319885 -19.780952570124356 -0.04668456542638211 -0.014769899907994762 -0.00445653793925291 0.03905761975686651 -0.021367031965679753 0.00597297380476596 -0.024439622881099913 0.006355585872904463 24.04282771364725 -0.04101817813160749 -0.0028626375723099138 28.877053465570505 -0.0025016383796946603 -0.007002034399068612 28.855627157365852 -0.03758427033557063 0.04178981931015169 1.8323634859351003 0.9041331516577531 9.368343047403599 -64.92673467775424 12.830019947078197 -31.4749777684185 -85.14125522988121 12.063403927555706 -120.5406834769471 -32.004423312885955 -5.4671466591868985 3.2564972345433185 -0.5097276597989959 0.09351540260504662 -8.075313478683345 -0.021759320228428938 0.005045842139469054 44.60369445225745 0.016544329202167158 0.03399489067557709 44.560380124254046 12.425993953397318 -0.024222996088706157 0.017771704746462176 0.032953408712666075 -0.0026485880973186548 0.012835283201045428 0.04010295802492485 0.014828742895129922 0.00027228328987285555 11.098558146972795 0.0326805096368382 -0.021883921599954524 -0.0042620331179300175 -0.032773400405194865 0.02977953672381509 -0.02776748627320611 -0.026948646687367392 -0.009188354652970724 4.806905015287434 0.008941101630887908 0.03590053427563688 0.017865306948980166 0.03368343751385042 -0.0003432557063205825 -0.03880508715646094 0.014949992787538337 -0.027925603123150133 -5.588400559251521 -0.003051705616300769 0.009154750004774274 -6.768825623683891 0.03379139798761913 0.004884765278195973 -6.708917855655043 0.04883990058609388 0.0483011182501208 0.00110409411657646 -0.04202627048939249 -0.023866223632981232 8.042683864791073 3.5075850933599138 -19.173107228817127 -0.04640677723345991 10.404756677437977 -0.034221218072651285 -5.622792753147867 -15.648568673371813 3.2345602522697945 0.01836743521622406 0.012927795294101933 -0.01123894290906582 0.02814991932220223 4.712518885991927 0.0023119198455779145 12.413596719027826 -8.269577532159362 6.88914693987833 -0.03215780537699645 46.39770886009435 0.0025493007199209267 -4.34388604909982 -14.726343301478256 -3.852922967949632 -0.0018328168777074327 0.010883178696808172 0.037245770593627756 0.010054960671765445 -10.729629515833492 0.0033479984074562793 
0.013964108324896606 0.001432234658816847 0.04553926728260049 0.031393435827239295 0.0005935445338262343 0.008038499174357987 -3.972685348131845 5.610473397812846 -0.5688094533054477 -0.6349593415798903 3.226471410915265 0.327490276392127 -0.7088372792721003 -0.5453400891366413 -1.6556668915355475 -1.2242842066901634 0.12480892248035433 -0.9533518833984017 -1.7837871067259765 9.82530178289764 4.044076204612709 -0.29414319495258084 -1.203481883003585 7.27989695468966 -1.3934386080008145 -15.757296085650502 0.7199014306886818 3.778432412219039 -0.13389063780342308 -10.201782813431832 66.29603826346747 8.30949703392905 21.65000620323384 47.775548520131345 18.765627321923088 102.77628030183158 26.168702449505894 0.05825306337216141 -11.162950288552178 4.518841110100031 -0.12028725141481303 -1.5881472933559677 0.018232200287300437 -0.021718637257014013 -56.20571938534609 0.03450136213526559 -0.025309754275653403 -56.234193569627635 -38.802277756417055 0.00021270690210521792 0.009405222053761693 -0.014768635347220544 0.025124335857085865 0.008845734204698625 0.014964521857820793 -0.020616979981973198 -0.041224213368267516 -36.668294520476564 -0.048184268155025696 -0.018137537842719695 -0.027581983221436256 0.039661899330234174 0.03872211451309656 0.006325118539386019 -0.00503098238311302 0.010063819678744387 -19.743075527685118 -0.01638236041809708 -0.03472650833572537 -0.026019536102596573 0.04286146660146126 -0.04828874917277996 -0.03543146132278327 0.016847539378189523 -0.0161680774594863 24.100884500062516 -0.011074540017441807 0.02557046511976429 28.86399528472514 -0.012317077576347401 -0.009538656343309793 28.90218049294846 -0.041619532740024716 -0.011230281140200917 2.08025084778801 0.9234511970313569 9.426887307959586 -65.79975297738528 14.021887711266853 -30.850673202797683 -87.72544002129335 12.108313921342988 -121.5276873187128 -32.408401287338364 -6.194701184462474 3.9266745724374434 -0.4611325290097789 0.09223416321562734 -8.152025842138892 -0.023811331889640356 0.012279816806034741 44.581678526922914 0.02726245152619899 -0.04702805944136099 44.55758407015066 12.475883195691477 -0.019041750814438818 0.029277278532616826 -0.004805072408608011 -0.03544232817745398 -0.04072277177343453 0.003993058927376179 -0.0004476658169713114 0.0037691441054471587 11.152430490681478 -0.0032455837125404375 -0.008397646319311959 -0.022966269454501007 0.041839640443845624 -0.02042240365827412 -0.04062624385927723 -0.02666928519341411 0.002793837962943977 4.76428136713734 -0.030295944006814457 0.025663611964288874 0.0195110181181514 -0.02472809786335937 -0.041781452641902764 -0.011920200931294806 -0.044312329651979 0.031451801908670196 -5.637161724527101 0.01689940246530811 0.032279963016826355 -6.755177532971839 0.024426767303066317 -0.012298052738388162 -6.698343854915771 -0.0017773239267987236 -0.03963416074956318 0.043766891264725 0.01504084170851051 -0.009877106536366234 8.045447216290382 3.480159161738845 -19.263542833909778 0.004330111131800866 10.3818867731323 -0.00014779904686386923 -5.616788800191338 -15.653270708600484 3.2252617501622822 -0.033516336761068286 0.03299086389098735 -0.016071511272006973 0.011360676867911956 4.67913467501348 0.00678942669050045 12.421495699007433 -8.222263591066884 6.864059453188975 0.008954157375399178 46.36083654089906 0.014213520165346619 -4.36762579005576 -14.751727189882809 -3.8467404298415278 0.005797770361110507 0.02034668191149048 -0.02873672671694196 0.01415703036803151 -10.756808727877251 -0.022290978687765722 
-0.024911138801007718 -0.03423177803020161 0.00809236548813952 0.00893549340667726 -0.018445986521145513 -0.021004375645827397 -3.691656583836569 5.184952686855248 -0.6009476728474034 -0.5674194067846501 3.1939965468337563 0.31467735901057814 -0.7416496477623721 -0.5803241231135141 -1.5764940418349476 -1.2001850393779712 0.06975713108799234 -0.9087777620002401 -1.790578022849996 9.966407301675316 3.9884384793514633 -0.2900550824775594 -1.25584790684439 7.263119256700875 -1.3487213421963813 -15.924086040372723 0.6844460936103777 3.203717658048656 0.07063745298963703 -10.356576633324893 67.47016202172732 9.06715617658199 21.14310219382845 48.21170391476397 19.39135798879848 102.33794786428344 25.51511143691504 -0.0653472749562969 -11.081086207572504 4.542290514259741 -0.17605242884638164 -1.6019875421426826 0.007396634101130343 -0.046986514128629385 -56.23270708998258 0.04697756629463525 0.025237713745979995 -56.23170072502657 -38.75769064663776 0.010664566994767121 -0.03541939841102164 0.016045081623150326 0.01882581169283881 -0.016843266691147833 -0.01921923221647852 -0.009732626307938943 0.019826930207265208 -36.71733364363481 -0.0013907936138568121 -0.02985652118698538 -0.049581227285073685 -0.03941759684702027 0.036244215100942716 0.010253530968410465 0.003638724675317171 0.03655326872861648 -19.73474723666791 -0.014943306277820968 -0.03215776940400002 0.044810931901123 -0.03835476408807967 -0.01908018438967267 -0.030792864575155846 0.00027349273110289607 -0.04187675243612369 24.090843586887868 -0.016498541885629537 0.02298039941148606 28.87854775099648 0.006890015257080359 0.004711614440015225 28.850082660443743 0.003336161684615856 0.009077939828910432 2.618726198033838 1.0407239298488988 9.503834476465705 -66.77406486244189 15.244375846042983 -30.45248295557482 -89.49312831899849 12.343667395777073 -122.31677720173882 -32.24421858399345 -6.7116040462131945 4.588010052120939 -0.48302817319994856 0.0876768423893029 -8.113119252292364 -0.02184484338069481 -0.027535707737126925 44.59967065187734 0.008443407003912416 -0.023045615585533363 44.612244673836436 12.463926241417816 -0.0011478859253645768 0.01771236148056974 -0.01734036123510863 0.007532400020470811 -0.030834555633829423 0.021585105571270965 0.02814849433231769 -0.0014980446895310356 11.108048268480532 -0.02114122572798753 0.041278820397939654 0.04590943460598294 0.021218735772062937 0.02312822449990661 0.021257619419091385 -0.01781212070190626 -0.01185211082468624 4.783956622224625 -0.03192996932285467 -0.005969547429472003 -0.011108735778016764 0.03270198193451693 -0.010093534543864285 0.007309017600999002 -0.002888005248036805 -0.014002216157149455 -5.61268936280313 0.007720299505935142 -0.0233608333295981 -6.6874467063572585 -0.006660277005582308 -0.046249274022364145 -6.695678597015384 0.004463191566933841 -0.04957123145895872 -0.0006705706313447078 0.038937058160964905 0.03605590496352604 8.079214127496966 3.521985121003431 -19.252452047978046 -0.01861707058732087 10.438581270460757 -0.02101039005226508 -5.588655566866879 -15.629272062379092 3.2231220581177715 0.013276311470273184 0.01824762307923985 -0.028542552147186935 -0.021608889621069646 4.724908549838888 -0.040126249383823476 12.43973292030787 -8.230623360590519 6.90204902258789 0.030859556044603213 46.37634665590827 0.011989344004441575 -4.355880399889849 -14.717464435044795 -3.8257159775537 0.0053442868348667 -0.03135119355587283 -0.030764461655215333 -0.02850909561904656 -10.740303076749841 0.036921238903314765 
0.048073132199285835 0.03540877066371749 0.038711725374773645 0.01899739438312022 -0.004558708666976542 -0.04554190148556558 -3.3606523042693537 4.853654303235966 -0.7083222571663599 -0.5692079395559687 3.281270121192577 0.3121259405294553 -0.7005159094292451 -0.6695406067929333 -1.508862532409176 -1.1673584771777206 0.04714659731800468 -0.9376823445119401 -1.7366640678076124 10.221009166351463 3.7744317642218754 -0.21398947352486236 -1.2496865864554105 7.159177583432332 -1.2765200935642271 -16.08946302015821 0.6514837805555713 2.4288396446351115 0.315023046333877 -10.646889675362443 68.90402217435538 9.360088633855595 20.698662534261256 48.51391049490554 20.05723619350455 101.89323520951385 24.78339367262751 -0.04532389839961126 -10.926003417465866 4.571708827638097 -0.11362664435511564 -1.5650854275490007 0.021855405795975377 0.012863557877644562 -56.1889186055075 -0.035240867031698465 -0.0439685628099899 -56.24210161183413 -38.79294297779948 0.017047983871706807 -0.015689088419423743 -0.018337863726982935 -0.029833781641765793 -0.007491331850722913 -0.046278314003385834 0.003965476558471615 -0.0032280287481561212 -36.65422924702278 -0.02034805210471997 0.045448988769591345 0.020463874673960977 -0.0012119159329627178 -0.03035206581976678 -0.02611017375454302 0.0055304793747097455 0.0017526393231211928 -19.745350148375138 -0.0222729699844701 0.0008774696232660641 -0.01403462812363783 0.021063168099760287 -0.0034910994577605813 -0.04759227269712913 0.0436409372364668 -0.04398638902123438 24.007582631411015 0.03131469713687276 -0.02596006214982627 28.86266429026748 0.03604267591951493 0.03406894623874635 28.861083855065502 -0.007444331643248916 -0.010924831042664727 3.291424830744897 1.1517923093279634 9.650521505639075 -67.96636329352951 16.235057766275332 -29.794541077680293 -90.49630041108607 12.99112483862974 -123.04145115955976 -32.37249586890564 -7.244324305730234 5.2970899054487965 -0.5041859649570706 0.022827823327447684 -8.107605997457554 -0.0034883845506475542 0.038727364638779634 44.54169736529921 -0.03213455581285133 -0.03227377039821311 44.546458613506445 12.462967129844499 -0.01595683373532859 0.040185495576154244 -0.04351086525872098 -0.022342217711760128 0.006684558632253302 0.03955752741172135 0.017280536121586938 -0.011568766293713062 11.082246477543553 0.012344073488556345 0.016218128573778197 0.023701260503211218 0.019483556574808877 -0.03455684789029461 0.01654416622821088 0.026330207474569184 0.023069060221822042 4.768358642155952 -0.03166822501421262 0.000926217133710062 -0.04952330060091654 -0.02112110542602914 0.005713491203771014 -0.011840927111428659 -0.03153959419013597 -0.03276025236905987 -5.559433771588729 -0.04157354498262802 -0.013950825412944888 -6.702279677210264 -0.023661754733828012 0.020633963551495944 -6.684008818655588 -0.009556408141508087 -0.02174852406341281 0.04990647564223403 -0.02033423110403937 0.00407820552942024 8.074469161671946 3.481998765424148 -19.18751765826917 0.035716993203669126 10.389808736058063 0.04921038860549505 -5.645199575305129 -15.635091324482705 3.179783547818062 -0.032591500405923575 -0.0013013055289565565 -0.020053161964797565 0.02152813939605 4.67395041351751 -0.030267001294732716 12.4862399685114 -8.22703371567308 6.848568185569475 0.014233844488820894 46.3952057852628 -0.02973293968176457 -4.293995604735374 -14.73143147927384 -3.867024795226382 -0.016527810210131222 -0.0426713497683578 0.048968184557780806 0.013870456615881818 -10.756856552157556 0.048478267181962784 
